<?xml version="1.0" standalone="no"?>
<!DOCTYPE svg PUBLIC "-//W3C//DTD SVG 20010904//EN"
 "http://www.w3.org/TR/2001/REC-SVG-20010904/DTD/svg10.dtd">
<svg version="1.0" xmlns="http://www.w3.org/2000/svg"
 width="1000.000000pt" height="1000.000000pt" viewBox="0 0 1000.000000 1000.000000"
 preserveAspectRatio="xMidYMid meet">
<metadata>
Created by potrace 1.11, written by Peter Selinger 2001-2013
</metadata>
<g transform="translate(0.000000,1000.000000) scale(0.100000,-0.100000)"
fill="#000000" stroke="none">
<path d="M8465 8199 c-109 -13 -726 -84 -2826 -324 -2026 -232 -1970 -225
-1964 -235 3 -5 29 -14 57 -20 88 -21 305 -99 432 -156 278 -124 509 -275 793
-520 l48 -42 110 100 c406 367 867 604 1397 717 713 153 1492 40 2112 -306
124 -69 284 -175 394 -260 45 -35 82 -58 82 -52 0 36 -195 901 -212 941 -24
57 -82 112 -146 140 -56 24 -164 31 -277 17z"/>
<path d="M2698 7713 c12 -2 30 -2 40 0 9 3 -1 5 -23 4 -22 0 -30 -2 -17 -4z"/>
<path d="M3118 7713 c12 -2 30 -2 40 0 9 3 -1 5 -23 4 -22 0 -30 -2 -17 -4z"/>
<path d="M2588 7703 c6 -2 18 -2 25 0 6 3 1 5 -13 5 -14 0 -19 -2 -12 -5z"/>
<path d="M3238 7703 c6 -2 18 -2 25 0 6 3 1 5 -13 5 -14 0 -19 -2 -12 -5z"/>
<path d="M2508 7693 c7 -3 16 -2 19 1 4 3 -2 6 -13 5 -11 0 -14 -3 -6 -6z"/>
<path d="M3328 7693 c7 -3 16 -2 19 1 4 3 -2 6 -13 5 -11 0 -14 -3 -6 -6z"/>
<path d="M2438 7683 c7 -3 16 -2 19 1 4 3 -2 6 -13 5 -11 0 -14 -3 -6 -6z"/>
<path d="M3398 7683 c7 -3 16 -2 19 1 4 3 -2 6 -13 5 -11 0 -14 -3 -6 -6z"/>
<path d="M2378 7673 c7 -3 16 -2 19 1 4 3 -2 6 -13 5 -11 0 -14 -3 -6 -6z"/>
<path d="M3458 7673 c7 -3 16 -2 19 1 4 3 -2 6 -13 5 -11 0 -14 -3 -6 -6z"/>
<path d="M3558 7653 c7 -3 16 -2 19 1 4 3 -2 6 -13 5 -11 0 -14 -3 -6 -6z"/>
<path d="M1435 7394 c-11 -2 -243 -29 -515 -59 -272 -31 -522 -63 -555 -71
-138 -35 -215 -113 -215 -216 0 -39 165 -806 176 -817 3 -3 9 1 14 9 260 448
564 767 976 1028 60 38 136 83 168 101 l59 31 -44 -1 c-24 -1 -53 -3 -64 -5z"/>
<path d="M5010 6886 c0 -2 8 -10 18 -17 15 -13 16 -12 3 4 -13 16 -21 21 -21
13z"/>
<path d="M6950 6843 c-498 -51 -905 -248 -1242 -602 -138 -145 -223 -265 -308
-436 -59 -117 -130 -302 -130 -336 0 -5 221 -9 536 -9 350 0 542 -4 555 -10
18 -10 19 -26 19 -453 0 -331 -3 -446 -12 -455 -9 -9 -145 -12 -551 -12 l-539
0 8 -32 c13 -61 75 -212 130 -318 233 -448 708 -818 1217 -950 192 -49 331
-63 562 -56 254 7 417 34 630 103 622 202 1119 759 1247 1397 33 161 33 488 0
659 -67 353 -217 646 -460 900 -334 347 -745 554 -1207 607 -83 9 -375 11
-455 3z"/>
<path d="M2790 6803 c-102 -8 -272 -36 -381 -63 -483 -120 -867 -397 -1148
-830 -257 -394 -339 -845 -241 -1320 46 -221 159 -480 287 -659 179 -249 450
-476 742 -622 594 -297 1384 -253 1946 109 158 101 386 304 466 415 l28 39
-19 38 c-61 119 -135 337 -174 512 l-23 103 -489 5 -489 5 -3 454 c-2 357 0
456 10 463 7 4 226 8 487 8 260 -1 475 1 476 2 1 2 12 50 25 108 29 138 82
313 130 428 l39 93 -73 82 c-259 290 -656 514 -1056 596 -165 34 -372 47 -540
34z"/>
<path d="M5110 6775 c19 -19 36 -35 39 -35 3 0 -10 16 -29 35 -19 19 -36 35
-39 35 -3 0 10 -16 29 -35z"/>
<path d="M5185 6690 c10 -11 20 -20 23 -20 3 0 -3 9 -13 20 -10 11 -20 20 -23
20 -3 0 3 -9 13 -20z"/>
<path d="M5220 6646 c0 -2 8 -10 18 -17 15 -13 16 -12 3 4 -13 16 -21 21 -21
13z"/>
<path d="M5286 6543 c-6 -14 -5 -15 5 -6 7 7 10 15 7 18 -3 3 -9 -2 -12 -12z"/>
<path d="M4470 6076 c0 -2 8 -10 18 -17 15 -13 16 -12 3 4 -13 16 -21 21 -21
13z"/>
<path d="M51 5414 c0 -11 3 -14 6 -6 3 7 2 16 -1 19 -3 4 -6 -2 -5 -13z"/>
<path d="M41 5354 c0 -11 3 -14 6 -6 3 7 2 16 -1 19 -3 4 -6 -2 -5 -13z"/>
<path d="M32 5280 c0 -14 2 -19 5 -12 2 6 2 18 0 25 -3 6 -5 1 -5 -13z"/>
<path d="M22 5180 c0 -19 2 -27 5 -17 2 9 2 25 0 35 -3 9 -5 1 -5 -18z"/>
<path d="M22 4760 c0 -19 2 -27 5 -17 2 9 2 25 0 35 -3 9 -5 1 -5 -18z"/>
<path d="M31 4654 c0 -11 3 -14 6 -6 3 7 2 16 -1 19 -3 4 -6 -2 -5 -13z"/>
<path d="M41 4584 c0 -11 3 -14 6 -6 3 7 2 16 -1 19 -3 4 -6 -2 -5 -13z"/>
<path d="M51 4514 c0 -11 3 -14 6 -6 3 7 2 16 -1 19 -3 4 -6 -2 -5 -13z"/>
<path d="M4508 3883 c7 -3 16 -2 19 1 4 3 -2 6 -13 5 -11 0 -14 -3 -6 -6z"/>
<path d="M9781 3767 c-228 -418 -562 -779 -979 -1058 -57 -38 -102 -69 -100
-69 42 0 1055 123 1083 131 132 38 215 120 215 214 0 22 -167 794 -178 826 -6
16 -13 8 -41 -44z"/>
<path d="M5286 3377 c3 -10 9 -15 12 -12 3 3 0 11 -7 18 -10 9 -11 8 -5 -6z"/>
<path d="M570 3326 c0 -2 8 -10 18 -17 15 -13 16 -12 3 4 -13 16 -21 21 -21
13z"/>
<path d="M610 3276 c0 -2 8 -10 18 -17 15 -13 16 -12 3 4 -13 16 -21 21 -21
13z"/>
<path d="M5189 3233 c-13 -16 -12 -17 4 -4 16 13 21 21 13 21 -2 0 -10 -8 -17
-17z"/>
<path d="M680 3195 c13 -14 26 -25 28 -25 3 0 -5 11 -18 25 -13 14 -26 25 -28
25 -3 0 5 -11 18 -25z"/>
<path d="M5114 3148 l-29 -33 33 29 c17 17 32 31 32 33 0 8 -8 1 -36 -29z"/>
<path d="M810 3055 c35 -36 67 -65 69 -65 3 0 -24 29 -59 65 -35 36 -67 65
-69 65 -3 0 24 -29 59 -65z"/>
<path d="M4945 2969 c-456 -417 -1011 -671 -1650 -756 -181 -23 -573 -24 -745
0 -522 73 -933 229 -1348 514 -68 46 -125 83 -127 81 -5 -4 148 -709 170 -783
18 -64 68 -123 136 -160 84 -46 166 -45 589 4 384 44 1116 128 2150 246 1780
204 2122 243 2125 247 3 2 -59 28 -138 57 -359 132 -714 345 -969 580 -42 39
-78 71 -80 71 -1 -1 -52 -46 -113 -101z"/>
<path d="M955 2920 c10 -11 20 -20 23 -20 3 0 -3 9 -13 20 -10 11 -20 20 -23
20 -3 0 3 -9 13 -20z"/>
<path d="M1035 2850 c10 -11 20 -20 23 -20 3 0 -3 9 -13 20 -10 11 -20 20 -23
20 -3 0 3 -9 13 -20z"/>
</g>
</svg>
